<svg version="1.2" xmlns="http://www.w3.org/2000/svg" viewBox="0 0 1920 110" width="1920" height="110">
	<title>banner-shape-svg</title>
	<style>
		.s0 { fill: #f0f5ff } 
		.s1 { fill: #ffffff } 
	</style>
	<path id="Shape 1" class="s0" d="m-60-73h2031v265h-2031z"/>
	<path id="Layer" class="s1" d="m0-79h53.3c53.4 0 160 0 266.7 0q160 0 320 0 160 0 320 0 160 0 320 0 160 0 320 0c106.7 0 213.3 0 266.7 0h53.3v170.4l-53.3-7.1c-53.4-7.6-160-20.9-266.7-21.3-106.7 0.4-213.3 13.7-320 28.4-106.7 14.6-213.3 27.9-320 7-106.7-21.7-213.3-77.6-320-92.2-106.7-14.7-213.3 14.6-320 35.5-106.7 21.7-213.3 35-266.7 42.6l-53.3 7.1z"/>
</svg>